Coordinates
version=1
nRows=26
nColumns=24
inDegrees=yes

Units are S.I. units (second, meters, Newtons, ...)
Angles are in degrees.

endheader
time	pelvis_tilt	pelvis_list	pelvis_rotation	pelvis_tx	pelvis_ty	pelvis_tz	hip_flexion_r	hip_adduction_r	hip_rotation_r	knee_angle_r	ankle_angle_r	subtalar_angle_r	mtp_angle_r	hip_flexion_l	hip_adduction_l	hip_rotation_l	knee_angle_l	ankle_angle_l	subtalar_angle_l	mtp_angle_l	lumbar_extension	lumbar_bending	lumbar_rotation
      4.29000000	     -0.78637226	      0.21120530	     -0.73678667	     -1.78922770	      0.96021727	      0.17484755	     20.50237921	      0.85627529	     -6.68881035	    -55.74204847	      5.74907260	      1.24853334	      0.00000000	      3.58444654	      5.90520189	      3.19024904	    -10.94141197	     11.81571131	     -4.41372132	      0.00000000	    -16.36919358	     -0.64018700	     -4.78793134
      4.30000000	     -0.86893209	      0.21528959	     -0.47178592	     -1.77741891	      0.96049837	      0.17411826	     21.63770499	      0.79844763	     -6.93280446	    -54.30852893	      6.77907069	      1.32561475	      0.00000000	      2.55311892	      5.93857332	      3.48344965	    -10.29128162	     11.87422649	     -4.41004834	      0.00000000	    -16.36604493	     -0.47865003	     -5.05328834
      4.31000000	     -0.91864012	      0.25338633	     -0.20335132	     -1.76557804	      0.96060064	      0.17342830	     22.63898441	      0.70875675	     -7.14767662	    -52.62252255	      7.62155978	      1.30780501	      0.00000000	      1.49095985	      6.00201887	      3.85764991	     -9.66034946	     11.91606733	     -4.47574902	      0.00000000	    -16.39946727	     -0.36482695	     -5.27853341
      4.32000000	     -0.93460993	      0.32492026	      0.05791269	     -1.75368614	      0.96051148	      0.17279414	     23.49959148	      0.59294980	     -7.32973605	    -50.68815637	      8.30331151	      1.22563483	      0.00000000	      0.38498279	      6.09299612	      4.33323336	     -9.02729680	     11.88883015	     -4.69574771	      0.00000000	    -16.47146914	     -0.30325474	     -5.41709207
      4.33000000	     -0.96886696	      0.42518170	      0.32395859	     -1.74172496	      0.96013561	      0.17222256	     24.27062311	      0.47060482	     -7.45191769	    -48.51163180	      8.82121924	      1.14263449	      0.00000000	     -0.68034065	      6.19511940	      4.78321513	     -8.45106695	     12.01291582	     -4.77060649	      0.00000000	    -16.51089266	     -0.28230874	     -5.61146861
      4.34000000	     -0.97672499	      0.54867083	      0.57441686	     -1.72966184	      0.95952645	      0.17172871	     24.89896081	      0.33498682	     -7.55076143	    -46.10054358	      9.28372493	      1.16850174	      0.00000000	     -1.77770627	      6.30581463	      5.24252496	     -7.88800405	     12.17099231	     -4.85848415	      0.00000000	    -16.57353630	     -0.30697430	     -5.73372273
      4.35000000	     -0.96902558	      0.70739621	      0.78619716	     -1.71746511	      0.95865438	      0.17130561	     25.39814813	      0.19154900	     -7.57170944	    -43.46703230	      9.69880091	      1.39023383	      0.00000000	     -2.94256492	      6.45633657	      5.99811586	     -7.26321404	     12.10289419	     -5.47510032	      0.00000000	    -16.63127612	     -0.38648573	     -5.75086536
      4.36000000	     -0.95222823	      0.86454353	      1.01740796	     -1.70516367	      0.95754083	      0.17095043	     25.75967549	      0.06645054	     -7.56677937	    -40.59667121	     10.01607945	      1.80359764	      0.00000000	     -4.06360308	      6.56893732	      6.42514578	     -6.75511922	     12.36056625	     -5.43905228	      0.00000000	    -16.69532969	     -0.47186040	     -5.82510281
      4.37000000	     -0.92845197	      1.03915268	      1.21278024	     -1.69271867	      0.95615487	      0.17067771	     25.99919717	     -0.04705889	     -7.48815934	    -37.52126419	     10.34870885	      2.50651926	      0.00000000	     -5.23824045	      6.69853583	      7.08891372	     -6.19199286	     12.44566700	     -5.86874389	      0.00000000	    -16.74926332	     -0.59398804	     -5.81020875
      4.38000000	     -0.90263747	      1.21622542	      1.43007059	     -1.68017247	      0.95454578	      0.17045740	     26.10443253	     -0.14172979	     -7.34508459	    -34.21492618	     10.55486870	      3.36786695	      0.00000000	     -6.37840542	      6.80543928	      7.56625916	     -5.71471867	     12.70368787	     -5.93285461	      0.00000000	    -16.80536732	     -0.72676826	     -5.82450390
      4.39000000	     -0.87562696	      1.39085304	      1.69279274	     -1.66751924	      0.95273140	      0.17024565	     26.07383951	     -0.22240063	     -7.13141652	    -30.68829012	     10.62454249	      4.32781525	      0.00000000	     -7.50224190	      6.88862444	      8.02174640	     -5.29177833	     13.05076795	     -5.87784637	      0.00000000	    -16.86191886	     -0.85688096	     -5.90737485
      4.40000000	     -0.85346138	      1.57100091	      1.96717350	     -1.65476077	      0.95071628	      0.17007924	     25.92459196	     -0.29061874	     -6.80484568	    -26.96799692	     10.60269363	      5.37354916	      0.00000000	     -8.61661438	      6.96122893	      8.49279457	     -4.89529280	     13.36258520	     -5.83641410	      0.00000000	    -16.91563181	     -0.99441093	     -5.99987118
      4.41000000	     -0.83785253	      1.75307309	      2.30227753	     -1.64191485	      0.94853654	      0.16989245	     25.65161857	     -0.36447592	     -6.36170130	    -23.06480927	     10.42719926	      6.33256486	      0.00000000	     -9.70212286	      7.01175732	      9.00358482	     -4.55838377	     13.67099279	     -5.76658582	      0.00000000	    -16.97484034	     -1.12734314	     -6.16035795
      4.42000000	     -0.82073488	      1.94007960	      2.69827823	     -1.62896277	      0.94621325	      0.16967762	     25.25603181	     -0.45848868	     -5.79439248	    -19.02438263	     10.07239242	      7.02997503	      0.00000000	    -10.77242203	      7.04116859	      9.54480207	     -4.27278411	     13.97230786	     -5.66531340	      0.00000000	    -17.04618826	     -1.25590895	     -6.38222785
      4.43000000	     -0.79060408	      2.13957911	      3.15936780	     -1.61590651	      0.94377657	      0.16940452	     24.74194270	     -0.59652758	     -5.11126872	    -14.91915012	      9.48191270	      7.26707487	      0.00000000	    -11.82383652	      7.05740119	     10.10716922	     -4.07228297	     14.31135173	     -5.49994803	      0.00000000	    -17.15084897	     -1.37732031	     -6.71234388
      4.44000000	     -0.75098434	      2.34721631	      3.69368936	     -1.60272669	      0.94122305	      0.16905521	     24.15933199	     -0.80511038	     -4.50802713	    -10.90016466	      8.76429825	      7.10846504	      0.00000000	    -12.84582942	      7.05322584	     10.63803345	     -3.96822246	     14.67260731	     -5.25627052	      0.00000000	    -17.28594723	     -1.48451170	     -7.18632399
      4.45000000	     -0.80285486	      2.64399537	      4.24818838	     -1.58951895	      0.93840831	      0.16869056	     23.69969875	     -1.14220144	     -3.88575342	     -7.17011040	      7.77394001	      6.18658158	      0.00000000	    -13.71644529	      7.13964859	     11.20781738	     -3.99319265	     15.03259833	     -4.94265595	      0.00000000	    -17.34762053	     -1.69846003	     -7.72322539
      4.46000000	     -0.82801390	      2.87823236	      4.79548345	     -1.57619360	      0.93557990	      0.16829304	     23.37176319	     -1.47193126	     -4.29471423	     -4.02590002	      7.14790717	      5.99077062	      0.00000000	    -14.58102973	      7.15353818	     11.75611616	     -4.09622696	     15.41870412	     -4.61547382	      0.00000000	    -17.45448228	     -1.80645529	     -8.27041204
      4.47000000	     -0.87579474	      3.10970805	      5.28442534	     -1.56285029	      0.93272441	      0.16800364	     23.24015429	     -1.75385706	     -5.15853111	     -1.52605126	      6.56410115	      5.61577053	      0.00000000	    -15.35685552	      7.17838569	     12.21277996	     -4.32145323	     15.72697401	     -4.28794200	      0.00000000	    -17.58131745	     -1.91504975	     -8.83438349
      4.48000000	     -0.93483064	      3.25455252	      5.68724238	     -1.54943977	      0.92991143	      0.16787489	     23.32506064	     -1.88010101	     -6.45700181	      0.22105672	      6.15760010	      5.20022747	      0.00000000	    -16.05690729	      7.13243930	     12.54867433	     -4.65023264	     15.98240717	     -3.99394657	      0.00000000	    -17.72180752	     -1.92741667	     -9.35602885
      4.49000000	     -0.91039455	      3.28684373	      5.96996928	     -1.53590761	      0.92734449	      0.16790154	     23.51326415	     -1.82041625	     -8.10964851	      1.18982148	      6.04412453	      5.04342348	      0.00000000	    -16.78398044	      6.98755440	     12.61669020	     -5.06437788	     16.15582222	     -3.56370856	      0.00000000	    -17.97644033	     -1.78364114	     -9.82838234
      4.50000000	     -0.95405718	      3.25976032	      6.11426061	     -1.52228533	      0.92483152	      0.16809376	     24.00383048	     -1.66873379	    -10.11182518	      1.28985525	      6.24959779	      5.41387355	      0.00000000	    -17.34937030	      6.83136562	     12.40098163	     -5.61999269	     16.32357056	     -2.94933629	      0.00000000	    -18.16307939	     -1.58764727	    -10.21488265
      4.51000000	     -0.91052505	      3.13509013	      6.15925746	     -1.50839282	      0.92259208	      0.16834148	     24.48608386	     -1.42021811	    -11.86848670	      0.72235890	      6.66447087	      5.70096042	      0.00000000	    -17.96289239	      6.59336962	     12.04745816	     -6.24741746	     16.37535132	     -2.36200529	      0.00000000	    -18.43905352	     -1.24158215	    -10.56644988
      4.52000000	     -0.89827126	      2.99512656	      6.13143382	     -1.49423766	      0.92047750	      0.16859977	     25.07297259	     -1.20604447	    -13.43208639	     -0.48023055	      7.18220653	      6.22420395	      0.00000000	    -18.45089687	      6.36698788	     11.39996300	     -7.04529342	     16.30364651	     -1.53873800	      0.00000000	    -18.65393384	     -0.87090698	    -10.88812745
      4.53000000	     -0.82974564	      2.84778779	      6.06163002	     -1.47969796	      0.91858905	      0.16883512	     25.55144874	     -1.01947116	    -14.34269199	     -2.08234465	      7.54833409	      6.42078657	      0.00000000	    -18.92520306	      6.13397560	     10.54349436	     -7.99036775	     16.02159074	     -0.60806797	      0.00000000	    -18.89405331	     -0.46532890	    -11.17591484
      4.54000000	     -0.79527246	      2.70152235	      6.00044498	     -1.46473062	      0.91678553	      0.16903083	     25.98054470	     -0.85919414	    -14.47405709	     -3.95053945	      7.72353991	      6.19891471	      0.00000000	    -19.26060075	      5.89111456	      9.51577423	     -9.13791573	     15.58642606	      0.44811814	      0.00000000	    -19.02581920	     -0.04629135	    -11.47573941
